{
  "asset": {
    "version": "2.0",
    "generator": "THREE.GLTFExporter"
  },
  "scenes": [
    {
      "name": "AuxScene",
      "nodes": [
        21
      ]
    }
  ],
  "scene1": 0,
  "nodes": [
    {
      "mesh": 0
    },
    {
      "mesh": 1
    },
    {
      "mesh": 2
    },
    {
      "mesh": 3
    },
    {
      "mesh": 4
    },
    {
      "mesh": 5
    },
    {
      "mesh": 6
    },
    {
      "mesh": 7
    },
    {
      "mesh": 8
    },
    {
      "mesh": 9
    },
    {
      "mesh": 10
    },
    {
      "mesh": 11
    },
    {
      "mesh": 12
    },
    {
      "mesh": 13
    },
    {
      "mesh": 14
    },
    {
      "mesh": 15
    },
    {
      "mesh": 16
    },
    {
      "mesh": 17
    },
    {
      "matrix": [
        1,
        0,
        0,
        0,
        0,
        2.220446049250313e-16,
        -1,
        0,
        0,
        1,
        2.220446049250313e-16,
        0,
        0,
        0,
        0,
        1
      ],
      "mesh": 18
    },
    {
      "matrix": [
        1,
        0,
        0,
        0,
        0,
        2.220446049250313e-16,
        -1,
        0,
        0,
        1,
        2.220446049250313e-16,
        0,
        0,
        0,
        0,
        1
      ],
      "mesh": 19
    },
    {
      "matrix": [
        1,
        0,
        0,
        0,
        0,
        2.220446049250313e-16,
        -1,
        0,
        0,
        1,
        2.220446049250313e-16,
        0,
        0,
        0,
        0,
        1
      ],
      "mesh": 20
    },
    {
      "children": [
        0,
        1,
        2,
        3,
        4,
        5,
        6,
        7,
        8,
        9,
        10,
        11,
        12,
        13,
        14,
        15,
        16,
        17,
        18,
        19,
        20
      ]
    }
  ],
  "bufferViews": [
    {
      "buffer": 0,
      "byteOffset": 0,
      "byteLength": 24,
      "target": 34962,
      "byteStride": 12
    },
    {
      "buffer": 0,
      "byteOffset": 24,
      "byteLength": 24,
      "target": 34962,
      "byteStride": 12
    },
    {
      "buffer": 0,
      "byteOffset": 48,
      "byteLength": 24,
      "target": 34962,
      "byteStride": 12
    },
    {
      "buffer": 0,
      "byteOffset": 72,
      "byteLength": 24,
      "target": 34962,
      "byteStride": 12
    },
    {
      "buffer": 0,
      "byteOffset": 96,
      "byteLength": 24,
      "target": 34962,
      "byteStride": 12
    },
    {
      "buffer": 0,
      "byteOffset": 120,
      "byteLength": 24,
      "target": 34962,
      "byteStride": 12
    },
    {
      "buffer": 0,
      "byteOffset": 144,
      "byteLength": 24,
      "target": 34962,
      "byteStride": 12
    },
    {
      "buffer": 0,
      "byteOffset": 168,
      "byteLength": 24,
      "target": 34962,
      "byteStride": 12
    },
    {
      "buffer": 0,
      "byteOffset": 192,
      "byteLength": 24,
      "target": 34962,
      "byteStride": 12
    },
    {
      "buffer": 0,
      "byteOffset": 216,
      "byteLength": 24,
      "target": 34962,
      "byteStride": 12
    },
    {
      "buffer": 0,
      "byteOffset": 240,
      "byteLength": 24,
      "target": 34962,
      "byteStride": 12
    },
    {
      "buffer": 0,
      "byteOffset": 264,
      "byteLength": 24,
      "target": 34962,
      "byteStride": 12
    },
    {
      "buffer": 0,
      "byteOffset": 288,
      "byteLength": 24,
      "target": 34962,
      "byteStride": 12
    },
    {
      "buffer": 0,
      "byteOffset": 312,
      "byteLength": 24,
      "target": 34962,
      "byteStride": 12
    },
    {
      "buffer": 0,
      "byteOffset": 336,
      "byteLength": 24,
      "target": 34962,
      "byteStride": 12
    },
    {
      "buffer": 0,
      "byteOffset": 360,
      "byteLength": 24,
      "target": 34962,
      "byteStride": 12
    },
    {
      "buffer": 0,
      "byteOffset": 384,
      "byteLength": 24,
      "target": 34962,
      "byteStride": 12
    },
    {
      "buffer": 0,
      "byteOffset": 408,
      "byteLength": 24,
      "target": 34962,
      "byteStride": 12
    },
    {
      "buffer": 0,
      "byteOffset": 432,
      "byteLength": 216,
      "target": 34962,
      "byteStride": 12
    },
    {
      "buffer": 0,
      "byteOffset": 648,
      "byteLength": 216,
      "target": 34962,
      "byteStride": 12
    },
    {
      "buffer": 0,
      "byteOffset": 864,
      "byteLength": 144,
      "target": 34962,
      "byteStride": 8
    },
    {
      "buffer": 0,
      "byteOffset": 1008,
      "byteLength": 96,
      "target": 34963
    },
    {
      "buffer": 0,
      "byteOffset": 1104,
      "byteLength": 2448,
      "target": 34962,
      "byteStride": 12
    },
    {
      "buffer": 0,
      "byteOffset": 3552,
      "byteLength": 1632,
      "target": 34962,
      "byteStride": 8
    },
    {
      "buffer": 0,
      "byteOffset": 5184,
      "byteLength": 2448,
      "target": 34962,
      "byteStride": 12
    },
    {
      "buffer": 0,
      "byteOffset": 7632,
      "byteLength": 1296,
      "target": 34962,
      "byteStride": 12
    }
  ],
  "buffers": [
    {
      "byteLength": 8928,
      "uri": "data:application/octet-stream;base64,"
    }
  ],
  "accessors": [
    {
      "bufferView": 0,
      "componentType": 5126,
      "count": 2,
      "max": [
        2.3806827068328857,
        0,
        1.0478194952011108
      ],
      "min": [
        1.8573640584945679,
        0,
        0.16902820765972137
      ],
      "type": "VEC3"
    },
    {
      "bufferView": 1,
      "componentType": 5126,
      "count": 2,
      "max": [
        2.3806827068328857,
        0,
        1.6625800132751465
      ],
      "min": [
        1.8918431997299194,
        0,
        1.0478194952011108
      ],
      "type": "VEC3"
    },
    {
      "bufferView": 2,
      "componentType": 5126,
      "count": 2,
      "max": [
        1.8918431997299194,
        0,
        1.6625800132751465
      ],
      "min": [
        1.2622617483139038,
        0,
        0.5920892953872681
      ],
      "type": "VEC3"
    },
    {
      "bufferView": 3,
      "componentType": 5126,
      "count": 2,
      "max": [
        1.2622617483139038,
        0,
        0.6388521790504456
      ],
      "min": [
        -0.2452893853187561,
        0,
        0.5920892953872681
      ],
      "type": "VEC3"
    },
    {
      "bufferView": 4,
      "componentType": 5126,
      "count": 2,
      "max": [
        1.1535557508468628,
        0,
        3.066096305847168
      ],
      "min": [
        -0.2452893853187561,
        0,
        0.6388521790504456
      ],
      "type": "VEC3"
    },
    {
      "bufferView": 5,
      "componentType": 5126,
      "count": 2,
      "max": [
        1.1535557508468628,
        0,
        3.150294065475464
      ],
      "min": [
        -0.1848733276128769,
        0,
        3.066096305847168
      ],
      "type": "VEC3"
    },
    {
      "bufferView": 6,
      "componentType": 5126,
      "count": 2,
      "max": [
        -0.1848733276128769,
        0,
        3.150294065475464
      ],
      "min": [
        -1.3323174715042114,
        0,
        0.713065505027771
      ],
      "type": "VEC3"
    },
    {
      "bufferView": 7,
      "componentType": 5126,
      "count": 2,
      "max": [
        -1.3323174715042114,
        0,
        0.713065505027771
      ],
      "min": [
        -3.1283960342407227,
        0,
        0.5298365354537964
      ],
      "type": "VEC3"
    },
    {
      "bufferView": 8,
      "componentType": 5126,
      "count": 2,
      "max": [
        -3.1283960342407227,
        0,
        0.5298365354537964
      ],
      "min": [
        -3.4283480644226074,
        0,
        0.2727040946483612
      ],
      "type": "VEC3"
    },
    {
      "bufferView": 9,
      "componentType": 5126,
      "count": 2,
      "max": [
        -3.0872204303741455,
        0,
        0.2727040946483612
      ],
      "min": [
        -3.4283480644226074,
        0,
        -0.10094911605119705
      ],
      "type": "VEC3"
    },
    {
      "bufferView": 10,
      "componentType": 5126,
      "count": 2,
      "max": [
        -1.3871104717254639,
        0,
        -0.10094911605119705
      ],
      "min": [
        -3.0872204303741455,
        0,
        -0.2671159505844116
      ],
      "type": "VEC3"
    },
    {
      "bufferView": 11,
      "componentType": 5126,
      "count": 2,
      "max": [
        -0.4287787973880768,
        0,
        -0.2671159505844116
      ],
      "min": [
        -1.3871104717254639,
        0,
        -2.817636251449585
      ],
      "type": "VEC3"
    },
    {
      "bufferView": 12,
      "componentType": 5126,
      "count": 2,
      "max": [
        0.44712939858436584,
        0,
        -2.817636251449585
      ],
      "min": [
        -0.4287787973880768,
        0,
        -2.892432928085327
      ],
      "type": "VEC3"
    },
    {
      "bufferView": 13,
      "componentType": 5126,
      "count": 2,
      "max": [
        0.44712939858436584,
        0,
        -0.32276684045791626
      ],
      "min": [
        -0.4200703799724579,
        0,
        -2.892432928085327
      ],
      "type": "VEC3"
    },
    {
      "bufferView": 14,
      "componentType": 5126,
      "count": 2,
      "max": [
        1.2414718866348267,
        0,
        -0.32276684045791626
      ],
      "min": [
        -0.4200703799724579,
        0,
        -0.5046483874320984
      ],
      "type": "VEC3"
    },
    {
      "bufferView": 15,
      "componentType": 5126,
      "count": 2,
      "max": [
        1.8543145656585693,
        0,
        -0.5046483874320984
      ],
      "min": [
        1.2414718866348267,
        0,
        -1.401656150817871
      ],
      "type": "VEC3"
    },
    {
      "bufferView": 16,
      "componentType": 5126,
      "count": 2,
      "max": [
        2.4553496837615967,
        0,
        -0.7025546431541443
      ],
      "min": [
        1.8543145656585693,
        0,
        -1.401656150817871
      ],
      "type": "VEC3"
    },
    {
      "bufferView": 17,
      "componentType": 5126,
      "count": 2,
      "max": [
        2.4553496837615967,
        0,
        0.16902820765972137
      ],
      "min": [
        1.8573640584945679,
        0,
        -0.7025546431541443
      ],
      "type": "VEC3"
    },
    {
      "bufferView": 18,
      "componentType": 5126,
      "count": 18,
      "max": [
        2.4553496837615967,
        2.892432928085327,
        0
      ],
      "min": [
        -3.4283480644226074,
        -3.150294065475464,
        0
      ],
      "type": "VEC3"
    },
    {
      "bufferView": 19,
      "componentType": 5126,
      "count": 18,
      "max": [
        0,
        0,
        1
      ],
      "min": [
        0,
        0,
        1
      ],
      "type": "VEC3"
    },
    {
      "bufferView": 20,
      "componentType": 5126,
      "count": 18,
      "max": [
        2.4553496837615967,
        2.892432928085327
      ],
      "min": [
        -3.4283480644226074,
        -3.150294065475464
      ],
      "type": "VEC2"
    },
    {
      "bufferView": 21,
      "componentType": 5123,
      "count": 48,
      "max": [
        17
      ],
      "min": [
        0
      ],
      "type": "SCALAR"
    },
    {
      "bufferView": 22,
      "componentType": 5126,
      "count": 204,
      "max": [
        2.4553496837615967,
        2.892432928085327,
        1
      ],
      "min": [
        -3.4283480644226074,
        -3.150294065475464,
        0
      ],
      "type": "VEC3"
    },
    {
      "bufferView": 23,
      "componentType": 5126,
      "count": 204,
      "max": [
        2.892432928085327,
        2.892432928085327
      ],
      "min": [
        -3.4283480644226074,
        -3.150294065475464
      ],
      "type": "VEC2"
    },
    {
      "bufferView": 24,
      "componentType": 5126,
      "count": 204,
      "max": [
        0.9474992752075195,
        0.9963738322257996,
        1
      ],
      "min": [
        -0.9361013174057007,
        -0.9995192289352417,
        -1
      ],
      "type": "VEC3"
    },
    {
      "bufferView": 25,
      "componentType": 5126,
      "count": 108,
      "max": [
        2.4553496837615967,
        2.892432928085327,
        1
      ],
      "min": [
        -3.4283480644226074,
        -3.150294065475464,
        0
      ],
      "type": "VEC3"
    }
  ],
  "materials": [
    {
      "pbrMetallicRoughness": {
        "baseColorFactor": [
          1,
          0,
          0,
          1
        ],
        "metallicFactor": 0.5,
        "roughnessFactor": 0.5
      }
    },
    {
      "pbrMetallicRoughness": {
        "baseColorFactor": [
          1,
          0,
          0,
          1
        ],
        "metallicFactor": 0.5,
        "roughnessFactor": 0.5
      }
    },
    {
      "pbrMetallicRoughness": {
        "baseColorFactor": [
          1,
          0,
          0,
          1
        ],
        "metallicFactor": 0.5,
        "roughnessFactor": 0.5
      }
    },
    {
      "pbrMetallicRoughness": {
        "baseColorFactor": [
          1,
          0,
          0,
          1
        ],
        "metallicFactor": 0.5,
        "roughnessFactor": 0.5
      }
    },
    {
      "pbrMetallicRoughness": {
        "baseColorFactor": [
          1,
          0,
          0,
          1
        ],
        "metallicFactor": 0.5,
        "roughnessFactor": 0.5
      }
    },
    {
      "pbrMetallicRoughness": {
        "baseColorFactor": [
          1,
          0,
          0,
          1
        ],
        "metallicFactor": 0.5,
        "roughnessFactor": 0.5
      }
    },
    {
      "pbrMetallicRoughness": {
        "baseColorFactor": [
          1,
          0,
          0,
          1
        ],
        "metallicFactor": 0.5,
        "roughnessFactor": 0.5
      }
    },
    {
      "pbrMetallicRoughness": {
        "baseColorFactor": [
          1,
          0,
          0,
          1
        ],
        "metallicFactor": 0.5,
        "roughnessFactor": 0.5
      }
    },
    {
      "pbrMetallicRoughness": {
        "baseColorFactor": [
          1,
          0,
          0,
          1
        ],
        "metallicFactor": 0.5,
        "roughnessFactor": 0.5
      }
    },
    {
      "pbrMetallicRoughness": {
        "baseColorFactor": [
          1,
          0,
          0,
          1
        ],
        "metallicFactor": 0.5,
        "roughnessFactor": 0.5
      }
    },
    {
      "pbrMetallicRoughness": {
        "baseColorFactor": [
          1,
          0,
          0,
          1
        ],
        "metallicFactor": 0.5,
        "roughnessFactor": 0.5
      }
    },
    {
      "pbrMetallicRoughness": {
        "baseColorFactor": [
          1,
          0,
          0,
          1
        ],
        "metallicFactor": 0.5,
        "roughnessFactor": 0.5
      }
    },
    {
      "pbrMetallicRoughness": {
        "baseColorFactor": [
          1,
          0,
          0,
          1
        ],
        "metallicFactor": 0.5,
        "roughnessFactor": 0.5
      }
    },
    {
      "pbrMetallicRoughness": {
        "baseColorFactor": [
          1,
          0,
          0,
          1
        ],
        "metallicFactor": 0.5,
        "roughnessFactor": 0.5
      }
    },
    {
      "pbrMetallicRoughness": {
        "baseColorFactor": [
          1,
          0,
          0,
          1
        ],
        "metallicFactor": 0.5,
        "roughnessFactor": 0.5
      }
    },
    {
      "pbrMetallicRoughness": {
        "baseColorFactor": [
          1,
          0,
          0,
          1
        ],
        "metallicFactor": 0.5,
        "roughnessFactor": 0.5
      }
    },
    {
      "pbrMetallicRoughness": {
        "baseColorFactor": [
          1,
          0,
          0,
          1
        ],
        "metallicFactor": 0.5,
        "roughnessFactor": 0.5
      }
    },
    {
      "pbrMetallicRoughness": {
        "baseColorFactor": [
          1,
          0,
          0,
          1
        ],
        "metallicFactor": 0.5,
        "roughnessFactor": 0.5
      }
    },
    {
      "pbrMetallicRoughness": {
        "baseColorFactor": [
          0.5647058823529412,
          0.9333333333333333,
          0.5647058823529412,
          1
        ],
        "metallicFactor": 0,
        "roughnessFactor": 0.9
      },
      "doubleSided": true,
      "extensions": {
        "KHR_materials_unlit": {}
      }
    },
    {
      "pbrMetallicRoughness": {
        "baseColorFactor": [
          0.5647058823529412,
          0.9333333333333333,
          0.5647058823529412,
          1
        ],
        "metallicFactor": 0,
        "roughnessFactor": 0.9
      },
      "extensions": {
        "KHR_materials_unlit": {}
      }
    },
    {
      "pbrMetallicRoughness": {
        "baseColorFactor": [
          0,
          0,
          0,
          1
        ],
        "metallicFactor": 0.5,
        "roughnessFactor": 0.5
      }
    }
  ],
  "meshes": [
    {
      "primitives": [
        {
          "mode": 3,
          "attributes": {
            "POSITION": 0
          },
          "material": 0
        }
      ]
    },
    {
      "primitives": [
        {
          "mode": 3,
          "attributes": {
            "POSITION": 1
          },
          "material": 1
        }
      ]
    },
    {
      "primitives": [
        {
          "mode": 3,
          "attributes": {
            "POSITION": 2
          },
          "material": 2
        }
      ]
    },
    {
      "primitives": [
        {
          "mode": 3,
          "attributes": {
            "POSITION": 3
          },
          "material": 3
        }
      ]
    },
    {
      "primitives": [
        {
          "mode": 3,
          "attributes": {
            "POSITION": 4
          },
          "material": 4
        }
      ]
    },
    {
      "primitives": [
        {
          "mode": 3,
          "attributes": {
            "POSITION": 5
          },
          "material": 5
        }
      ]
    },
    {
      "primitives": [
        {
          "mode": 3,
          "attributes": {
            "POSITION": 6
          },
          "material": 6
        }
      ]
    },
    {
      "primitives": [
        {
          "mode": 3,
          "attributes": {
            "POSITION": 7
          },
          "material": 7
        }
      ]
    },
    {
      "primitives": [
        {
          "mode": 3,
          "attributes": {
            "POSITION": 8
          },
          "material": 8
        }
      ]
    },
    {
      "primitives": [
        {
          "mode": 3,
          "attributes": {
            "POSITION": 9
          },
          "material": 9
        }
      ]
    },
    {
      "primitives": [
        {
          "mode": 3,
          "attributes": {
            "POSITION": 10
          },
          "material": 10
        }
      ]
    },
    {
      "primitives": [
        {
          "mode": 3,
          "attributes": {
            "POSITION": 11
          },
          "material": 11
        }
      ]
    },
    {
      "primitives": [
        {
          "mode": 3,
          "attributes": {
            "POSITION": 12
          },
          "material": 12
        }
      ]
    },
    {
      "primitives": [
        {
          "mode": 3,
          "attributes": {
            "POSITION": 13
          },
          "material": 13
        }
      ]
    },
    {
      "primitives": [
        {
          "mode": 3,
          "attributes": {
            "POSITION": 14
          },
          "material": 14
        }
      ]
    },
    {
      "primitives": [
        {
          "mode": 3,
          "attributes": {
            "POSITION": 15
          },
          "material": 15
        }
      ]
    },
    {
      "primitives": [
        {
          "mode": 3,
          "attributes": {
            "POSITION": 16
          },
          "material": 16
        }
      ]
    },
    {
      "primitives": [
        {
          "mode": 3,
          "attributes": {
            "POSITION": 17
          },
          "material": 17
        }
      ]
    },
    {
      "primitives": [
        {
          "mode": 4,
          "attributes": {
            "POSITION": 18,
            "NORMAL": 19,
            "TEXCOORD_0": 20
          },
          "indices": 21,
          "material": 18
        }
      ]
    },
    {
      "primitives": [
        {
          "mode": 4,
          "attributes": {
            "POSITION": 22,
            "TEXCOORD_0": 23,
            "NORMAL": 24
          },
          "material": 19
        }
      ]
    },
    {
      "primitives": [
        {
          "mode": 1,
          "attributes": {
            "POSITION": 25
          },
          "material": 20
        }
      ]
    }
  ],
  "extensionsUsed": [
    "KHR_materials_unlit"
  ]
}